<svg xmlns="http://www.w3.org/2000/svg" xml:space="preserve" viewBox="0 0 649 555">
  <style>
    .st2{fill:url(#SVGID_00000053518400876081454220000015963899042541699715_)}
  </style>
  <g id="Infinity_Mark">
    <path fill="#29abe2" d="M509 226c-39.3 0-80.8-25.7-101.2-44.4-22.3-20.4-83.5-86.8-83.8-87.1C283.8 49.7 229.9 0 176 0 111.1 0 54.6 44.9 39.8 104.4 41 100.5 61.6 46 139 46c39.3 0 80.8 25.7 101.2 44.4 22.3 20.4 83.5 86.8 83.8 87.1 40.2 44.8 94.1 94.5 148 94.5 64.9 0 121.4-44.9 136.2-104.4-1.2 3.9-21.8 58.4-99.2 58.4z"/>
    <linearGradient id="SVGID_1_" x1="248.578" x2="59.135" y1="254.208" y2="58.034" gradientUnits="userSpaceOnUse">
      <stop offset=".22" stop-color="#ed1e79"/>
      <stop offset=".892" stop-color="#522785"/>
    </linearGradient>
    <path fill="url(#SVGID_1_)" d="M324 177.5c-.1-.2-17.8-19.3-37.5-40.1-10.7 12.7-26.1 30-43.8 45.5-33 28.9-54.4 35-66.7 35-46.3 0-84-36.7-84-81.8 0-44.8 37.7-81.5 84-81.8 1.7 0 3.7.2 6.2.6-13.9-5.4-28.7-8.9-43.2-8.9-77.4 0-98 54.5-99.2 58.4-2.5 10.2-3.8 20.7-3.8 31.6 0 75 61.9 136 139 136 32.2 0 68.2-16.5 105.3-49 17.5-15.4 32.7-31.8 44.2-45l-.5-.5z"/>
    <linearGradient id="SVGID_00000059280019648420927660000000478922746206967989_" x1="282.409" x2="92.966" y1="-4827.374" y2="-5023.548" gradientTransform="rotate(180 340.855 -2404.732)" gradientUnits="userSpaceOnUse">
      <stop offset=".21" stop-color="#f15a24"/>
      <stop offset=".684" stop-color="#fbb03b"/>
    </linearGradient>
    <path fill="url(#SVGID_00000059280019648420927660000000478922746206967989_)" d="M324 94.5c.1.2 17.8 19.3 37.5 40.1 10.7-12.7 26.1-30 43.8-45.5 33-28.9 54.4-35 66.7-35 46.3 0 84 36.7 84 81.8 0 44.8-37.7 81.5-84 81.8-1.7 0-3.7-.2-6.2-.6 13.9 5.3 28.7 8.8 43.2 8.8 77.4 0 98-54.5 99.2-58.4 2.5-10.1 3.8-20.7 3.8-31.6C612 61 549.1 0 472 0c-32.2 0-67.2 16.5-104.3 49-17.5 15.4-32.7 31.8-44.2 45l.5.5z"/>
  </g>
  <path id="type" d="M17.9 423c2.5 0 4.6-2 4.6-4.6v-61.9c0-2.5-2-4.6-4.6-4.6H13c-2.5 0-4.6 2-4.6 4.6v61.9c0 2.5 2 4.6 4.6 4.6h4.9zm100.1 0c2.5 0 4.6-2 4.6-4.6v-61.9c0-2.5-2-4.6-4.6-4.6h-4.7c-2.5 0-4.6 2-4.6 4.6V399l-28.2-44.8c-.8-1.3-2.3-2.1-3.9-2.1h-10c-2.5 0-4.6 2-4.6 4.6v61.9c0 2.5 2 4.6 4.6 4.6h4.7c2.5 0 4.6-2 4.6-4.6v-45.8l30.9 48.3c.8 1.3 2.3 2.1 3.8 2.1h7.4zm91.7-57.9c2.5 0 4.6-2 4.6-4.6v-4c0-2.5-2-4.6-4.6-4.6H160c-2.5 0-4.6 2-4.6 4.6v4c0 2.5 2 4.6 4.6 4.6h17.9v53.3c0 2.5 2 4.6 4.6 4.6h4.8c2.5 0 4.6-2 4.6-4.6v-53.3h17.8zm77.4 57.9c2.5 0 4.6-2 4.6-4.6v-3.9c0-2.5-2-4.6-4.6-4.6H261v-16.4h23.2c2.5 0 4.6-2 4.6-4.6v-3.2c0-2.5-2-4.6-4.6-4.6H261V365h26.1c2.5 0 4.6-2 4.6-4.6v-3.9c0-2.5-2-4.6-4.6-4.6h-35.4c-2.5 0-4.6 2-4.6 4.6v61.9c0 2.5 2 4.6 4.6 4.6h35.4zm74.9-2.5c.8 1.5 2.3 2.5 4.1 2.5h5.1c3.4 0 5.6-3.6 4-6.7L363.4 394c9.3-2.7 15.1-10.2 15.1-20.1 0-12.3-8.8-21.8-22.6-21.8h-23.2c-2.5 0-4.6 2-4.6 4.6v61.9c0 2.5 2 4.6 4.6 4.6h4.8c2.5 0 4.6-2 4.6-4.6v-22.8h7.2l12.7 24.7zm-19.9-36.8V364h11.2c7 0 11.1 3.9 11.1 9.9 0 5.8-4.1 9.8-11.1 9.8h-11.2zM470.2 423c2.5 0 4.6-2 4.6-4.6v-61.9c0-2.5-2-4.6-4.6-4.6h-4.7c-2.5 0-4.6 2-4.6 4.6V399l-28.2-44.8c-.8-1.3-2.3-2.1-3.9-2.1h-10.2c-2.5 0-4.6 2-4.6 4.6v61.9c0 2.5 2 4.6 4.6 4.6h4.7c2.5 0 4.6-2 4.6-4.6v-45.8l30.9 48.3c.8 1.3 2.3 2.1 3.8 2.1h7.6zm84.2 0c2.5 0 4.6-2 4.6-4.6v-3.9c0-2.5-2-4.6-4.6-4.6h-26.1v-16.4h23.2c2.5 0 4.6-2 4.6-4.6v-3.2c0-2.5-2-4.6-4.6-4.6h-23.2V365h26.1c2.5 0 4.6-2 4.6-4.6v-3.9c0-2.5-2-4.6-4.6-4.6H519c-2.5 0-4.6 2-4.6 4.6v61.9c0 2.5 2 4.6 4.6 4.6h35.4zm88.5-57.9c2.5 0 4.6-2 4.6-4.6v-4c0-2.5-2-4.6-4.6-4.6h-49.7c-2.5 0-4.6 2-4.6 4.6v4c0 2.5 2 4.6 4.6 4.6h17.9v53.3c0 2.5 2 4.6 4.6 4.6h4.8c2.5 0 4.6-2 4.6-4.6v-53.3h17.8zM36.4 554.5c17.5 0 27.5-10.2 31.5-20 .9-2.2-.5-4.7-2.8-5.4l-4.4-1.3c-2.4-.7-5 .7-6.2 2.9-2.9 5.3-8.6 10.3-18.1 10.3-11.4 0-22-8.3-22-23.4 0-16.1 11.2-23.7 21.8-23.7 9.6 0 15.1 4.6 17.8 9.8 1.2 2.3 3.8 3.8 6.3 3.1l4.3-1.4c2.3-.7 3.7-3.1 2.8-5.3-4-10.1-13.9-19.5-31.3-19.5-19 0-36.2 14.4-36.2 37.1.1 22.5 16.6 36.8 36.5 36.8zm66.5-37.1c0-16 11.2-23.6 22.1-23.6 11 0 22.2 7.6 22.2 23.6S136 541 125 541c-10.9.1-22.1-7.5-22.1-23.6zm-14.4.2c0 22.8 17.2 37 36.5 37s36.6-14.1 36.6-37-17.2-37.1-36.6-37.1c-19.2 0-36.5 14.1-36.5 37.1zm173 35.4c2.5 0 4.6-2 4.6-4.6v-61.9c0-2.5-2-4.6-4.6-4.6h-11.2c-1.9 0-3.5 1.1-4.2 2.8l-19.7 48.4-20.2-48.5c-.7-1.7-2.4-2.8-4.2-2.8h-10.6c-2.5 0-4.6 2-4.6 4.6v61.9c0 2.5 2 4.6 4.6 4.6h4.1c2.5 0 4.6-2 4.6-4.6v-44.8l19.3 46.6c.7 1.7 2.4 2.8 4.2 2.8h5.4c1.8 0 3.5-1.1 4.2-2.8l19.3-46.9v45.2c0 2.5 2 4.6 4.6 4.6h4.4zm48.1-38.7V494h10.9c6.9 0 11.1 3.9 11.1 10.2 0 6.1-4.2 10.1-11.1 10.1h-10.9zm12.6 12c14 0 23.3-9.2 23.3-22.1 0-12.8-9.3-22.1-23.3-22.1h-22c-2.5 0-4.6 2-4.6 4.6v61.9c0 2.5 2 4.6 4.6 4.6h4.7c2.5 0 4.6-2 4.6-4.6v-22.2h12.7zm73.7 28.3c15.2 0 27.3-9.3 27.3-26.7v-41.3c0-2.5-2-4.6-4.6-4.6H414c-2.5 0-4.6 2-4.6 4.6v40.3c0 9.3-5.1 14.2-13.5 14.2-8.2 0-13.4-4.9-13.4-14.2v-40.3c0-2.5-2-4.6-4.6-4.6h-4.7c-2.5 0-4.6 2-4.6 4.6v41.3c.1 17.4 12.2 26.7 27.3 26.7zm104.2-59.5c2.5 0 4.6-2 4.6-4.6v-4c0-2.5-2-4.6-4.6-4.6h-49.7c-2.5 0-4.6 2-4.6 4.6v4c0 2.5 2 4.6 4.6 4.6h17.9v53.3c0 2.5 2 4.6 4.6 4.6h4.8c2.5 0 4.6-2 4.6-4.6v-53.3h17.8zm67 57.9c2.5 0 4.6-2 4.6-4.6v-3.9c0-2.5-2-4.6-4.6-4.6H541v-16.4h23.2c2.5 0 4.6-2 4.6-4.6v-3.2c0-2.5-2-4.6-4.6-4.6H541V495h26.1c2.5 0 4.6-2 4.6-4.6v-3.9c0-2.5-2-4.6-4.6-4.6h-35.4c-2.5 0-4.6 2-4.6 4.6v61.9c0 2.5 2 4.6 4.6 4.6h35.4zm64.9-2.5c.8 1.5 2.3 2.5 4.1 2.5h5.1c3.4 0 5.6-3.6 4-6.7L633.4 524c9.3-2.7 15.1-10.2 15.1-20.1 0-12.3-8.8-21.8-22.6-21.8h-23.2c-2.5 0-4.6 2-4.6 4.6v61.9c0 2.5 2 4.6 4.6 4.6h4.8c2.5 0 4.6-2 4.6-4.6v-22.8h7.2l12.7 24.7zm-19.9-36.8V494h11.2c7 0 11.1 3.9 11.1 9.9 0 5.8-4.1 9.8-11.1 9.8h-11.2z"/>
</svg>
